<?xml version="1.0" encoding="UTF-8"?>
<svg width="19px" height="19px" viewBox="0 0 19 19" version="1.1" xmlns="http://www.w3.org/2000/svg" xmlns:xlink="http://www.w3.org/1999/xlink">
    <title>big</title>
    <g id="big" stroke="none" stroke-width="1" fill="none" fill-rule="evenodd">
        <g id="Group" transform="translate(-3.000000, -3.000000)">
            <polygon id="Path" points="0 25 0 0 25 0 25 25"></polygon>
            <g transform="translate(3.000000, 3.000000)" fill-rule="nonzero">
                <path d="M2.10899945,18.4248234 L0.570000042,16.8910193 L4.0280003,13.4399598 C4.0280003,13.4399598 4.0280003,13.4399598 4.04699959,13.4399598 L5.58600042,14.973764 L2.10899945,18.4248234 L2.10899945,18.4248234 Z" id="Path" fill="#99D5FF"></path>
                <path d="M2.10899945,19 C1.95699944,19 1.82400014,18.9424831 1.71000013,18.8274477 L0.17100072,17.2936436 C0.0570007112,17.1786082 0,17.0443997 0,16.8910193 C0,16.7376388 0.0569992973,16.5842584 0.17100072,16.4883949 L3.62900098,13.0373355 C3.8380017,12.8264382 4.21800173,12.8264382 4.42700104,13.0373355 L5.96600186,14.5711397 C6.08000187,14.686175 6.13700116,14.8203822 6.13700116,14.9737626 C6.13700116,15.127143 6.08000045,15.2613516 5.98500115,15.3763855 L2.5270009,18.8274449 C2.41300089,18.9424802 2.26100088,19 2.10900086,19 L2.10899945,19 Z M1.3869994,16.8910193 L2.10899945,17.6195762 L4.76899965,14.973764 L4.04699959,14.245207 L1.3869994,16.8910193 Z" id="Shape" fill="#454B54"></path>
                <path d="M18.43,7.84157459 C18.43,3.83451188 15.1810004,0.594349833 11.1719994,0.594349833 C7.16299841,0.594349833 3.91399888,3.83451188 3.91399888,7.84157459 C3.91399888,11.8486373 7.16299983,15.0696275 11.1719994,15.0696275 C15.180999,15.0696275 18.43,11.8294655 18.43,7.84157601 L18.43,7.84157459 Z M5.73799901,7.84157459 C5.73799901,4.83148317 8.16999919,2.41574158 11.1719994,2.41574158 C14.1739996,2.41574158 16.6059998,4.85065643 16.6059998,7.84157459 C16.6059998,10.8324927 14.1739996,13.2674062 11.1719994,13.2674062 C8.16999919,13.2674062 5.73799901,10.8324927 5.73799901,7.84157459 Z" id="Shape" fill="#FFFFFF"></path>
                <path d="M11.1719994,13.3249245 C8.2079992,13.3249245 5.79499831,10.8708378 5.79499831,7.84157459 C5.79499831,4.81231133 8.20799778,2.35822464 11.1719994,2.35822464 C14.1359996,2.35822464 16.5490005,4.81231133 16.5490005,7.84157459 C16.5490005,10.8708378 14.1550003,13.3249245 11.1719994,13.3249245 L11.1719994,13.3249245 Z" id="Path" fill="#C7D7E2"></path>
                <path d="M11.1719994,15.6448026 C6.85899839,15.6448026 3.34399883,12.1362249 3.34399883,7.82240132 C3.34399883,3.50857778 6.8589998,0 11.1719994,0 C15.484999,0 19,3.52774962 19,7.84157316 C19,12.1553981 15.4850004,15.6448026 11.1719994,15.6448026 Z M11.1719994,1.1695264 C7.48599914,1.1695264 4.48399892,4.16044455 4.48399892,7.84157459 C4.48399892,11.5227046 7.48599914,14.4944509 11.1719994,14.4944509 C14.8579997,14.4944509 17.8599999,11.522706 17.8599999,7.84157601 C17.8599999,4.16044598 14.8579997,1.1695264 11.1719994,1.1695264 L11.1719994,1.1695264 Z" id="Shape" fill="#454B54"></path>
                <g transform="translate(4.313000, 12.452572)" fill="#454B54" id="Path">
                    <path d="M0,1.73511669 C0,1.60090811 0.0569992973,1.4858728 0.152000011,1.37083749 L1.38700081,0.143794142 C1.57700082,-0.0479313806 1.90000156,-0.0479313806 2.09000016,0.143794142 C2.28000017,0.335519664 2.28000017,0.661453766 2.09000016,0.853179289 L0.855000771,2.08022263 C0.665000756,2.27194816 0.342000025,2.27194816 0.152000011,2.08022263 C0.0380000028,2.00353242 0,1.86932385 0,1.73511669 Z"></path>
                </g>
                <g transform="translate(7.113392, 3.470233)" fill="#FFFFFF" id="Path">
                    <path d="M0.505608309,3.58526656 C0.448607598,3.58526656 0.391608301,3.58526656 0.334607589,3.54692145 C0.0686075695,3.45105941 -0.0643917334,3.16347041 0.0306075667,2.89505468 C0.638607612,1.16952497 2.25360703,0 4.05860787,0 C4.32460789,0 4.5526079,0.230070627 4.5526079,0.498486359 C4.5526079,0.76690209 4.32460789,0.996972717 4.05860787,0.996972717 C2.67160706,0.996972717 1.43660767,1.87891012 0.980607637,3.22098878 C0.904607632,3.45105941 0.714607618,3.58526656 0.505608309,3.58526656 L0.505608309,3.58526656 Z"></path>
                </g>
                <g transform="translate(6.915999, 7.266397)" fill="#FFFFFF" id="Path">
                    <path d="M0.494000037,1.07366293 C0.228000017,1.07366293 0,0.843592299 0,0.575176568 L0,0.498486359 C0,0.230070627 0.228000017,0 0.494000037,0 C0.494000037,0 0.494000037,0 0.513000745,0 C0.779000765,0 1.00700078,0.230070627 1.00700078,0.517658198 L1.00700078,0.575176568 C0.988001487,0.843592299 0.760000057,1.07366293 0.494001451,1.07366293 L0.494000037,1.07366293 Z"></path>
                </g>
            </g>
        </g>
    </g>
</svg>