<?xml version="1.0" encoding="UTF-8"?>
<svg width="50px" height="42px" viewBox="0 0 50 42" version="1.1" xmlns="http://www.w3.org/2000/svg" xmlns:xlink="http://www.w3.org/1999/xlink">
    <title>dilogo</title>
    <defs>
        <filter id="filter-1">
            <feColorMatrix in="SourceGraphic" type="matrix" values="0 0 0 0 0.094118 0 0 0 0 0.733333 0 0 0 0 0.996078 0 0 0 1.000000 0"></feColorMatrix>
        </filter>
        <linearGradient x1="14.6735323%" y1="50%" x2="98.3474523%" y2="50%" id="linearGradient-2">
            <stop stop-color="#18BBFE" stop-opacity="0.579299607" offset="0%"></stop>
            <stop stop-color="#35DFFF" offset="100%"></stop>
        </linearGradient>
        <filter id="filter-3">
            <feColorMatrix in="SourceGraphic" type="matrix" values="0 0 0 0 1.000000 0 0 0 0 1.000000 0 0 0 0 1.000000 0 0 0 1.000000 0"></feColorMatrix>
        </filter>
    </defs>
    <g id="dilogo" stroke="none" stroke-width="1" fill="none" fill-rule="evenodd">
        <g id="dlogo">
            <g id="Group-3">
                <g id="original-icon" transform="translate(6.329892, 0.000000)" filter="url(#filter-1)">
                    <g>
                        <path d="M19.1981402,0.0721140838 L1.29218832,0.0721140838 C0.671918246,0.0721140838 0.17054262,0.497076833 0.17054262,1.02069165 L0.17054262,40.8609493 C0.17054262,41.3845642 0.671918246,41.8095269 1.29218832,41.8095269 L19.1981402,41.8095269 C34.1934215,41.8095269 42.7930791,34.1374316 42.7930791,20.7615393 C42.7930791,7.80586696 33.9724573,0.0721140838 19.1981402,0.0721140838 Z M19.1981402,0.0721140838 L1.29218832,0.0721140838 C0.671918246,0.0721140838 0.17054262,0.497076833 0.17054262,1.02069165 L0.17054262,40.8609493 C0.17054262,41.3845642 0.671918246,41.8095269 1.29218832,41.8095269 L19.1981402,41.8095269 C34.1934215,41.8095269 42.7930791,34.1374316 42.7930791,20.7615393 C42.7930791,7.80586696 33.9724573,0.0721140838 19.1981402,0.0721140838 Z" id="Shape" fill="url(#linearGradient-2)" fill-rule="nonzero"></path>
                    </g>
                </g>
                <rect id="Rectangle" fill-opacity="0.509205638" fill="#7A73FF" x="0" y="14.6797628" width="30.8943089" height="10.2120089"></rect>
                <rect id="Rectangle" fill="#0348E5" x="6.89430894" y="14.6797628" width="11" height="10.2120089"></rect>
                <g id="Group-Copy-2" transform="translate(17.505674, 10.982727)"></g>
            </g>
            <g filter="url(#filter-3)" id="original-icon">
                <g transform="translate(17.505674, 10.982727)">
                    <path d="M9.33242926,0.0350554574 L0.628147098,0.0350554574 C0.326626925,0.0350554574 0.0829026627,0.241634571 0.0829026627,0.496169551 L0.0829026627,19.8629615 C0.0829026627,20.1174965 0.326626925,20.3240756 0.628147098,20.3240756 L9.33242926,20.3240756 C16.6218021,20.3240756 20.8021912,16.5945848 20.8021912,10.092415 C20.8021912,3.79451866 16.514389,0.0350554574 9.33242926,0.0350554574 Z M9.33242926,0.0350554574 L0.628147098,0.0350554574 C0.326626925,0.0350554574 0.0829026627,0.241634571 0.0829026627,0.496169551 L0.0829026627,19.8629615 C0.0829026627,20.1174965 0.326626925,20.3240756 0.628147098,20.3240756 L9.33242926,20.3240756 C16.6218021,20.3240756 20.8021912,16.5945848 20.8021912,10.092415 C20.8021912,3.79451866 16.514389,0.0350554574 9.33242926,0.0350554574 Z" id="Shape" fill-rule="nonzero"></path>
                    <path d="M9.33242926,0.0350554574 L0.628147098,0.0350554574 C0.326626925,0.0350554574 0.0829026627,0.241634571 0.0829026627,0.496169551 L0.0829026627,19.8629615 C0.0829026627,20.1174965 0.326626925,20.3240756 0.628147098,20.3240756 L9.33242926,20.3240756 C16.6218021,20.3240756 20.8021912,16.5945848 20.8021912,10.092415 C20.8021912,3.79451866 16.514389,0.0350554574 9.33242926,0.0350554574 Z M9.33242926,0.0350554574 L0.628147098,0.0350554574 C0.326626925,0.0350554574 0.0829026627,0.241634571 0.0829026627,0.496169551 L0.0829026627,19.8629615 C0.0829026627,20.1174965 0.326626925,20.3240756 0.628147098,20.3240756 L9.33242926,20.3240756 C16.6218021,20.3240756 20.8021912,16.5945848 20.8021912,10.092415 C20.8021912,3.79451866 16.514389,0.0350554574 9.33242926,0.0350554574 Z" id="Shape" fill="#000000" fill-rule="nonzero"></path>
                </g>
            </g>
        </g>
    </g>
</svg>