<?xml version="1.0" encoding="UTF-8"?>
<svg width="41px" height="37px" viewBox="0 0 41 37" version="1.1" xmlns="http://www.w3.org/2000/svg" xmlns:xlink="http://www.w3.org/1999/xlink">
    <title>dilogo</title>
    <defs>
        <filter color-interpolation-filters="auto" id="filter-1">
            <feColorMatrix in="SourceGraphic" type="matrix" values="0 0 0 0 1.000000 0 0 0 0 1.000000 0 0 0 0 1.000000 0 0 0 1.000000 0"></feColorMatrix>
        </filter>
    </defs>
    <g id="dilogo" stroke="none" stroke-width="1" fill="none" fill-rule="evenodd">
        <g id="Group-3">
            <g id="Group" transform="translate(5.361399, 0.000000)" fill="#000000" fill-rule="nonzero">
                <g id="original-icon">
                    <path d="M15.6934943,0 L0.925105772,0 C0.41352228,0 0,0.374875199 0,0.836774998 L0,35.9813249 C0,36.4432247 0.41352228,36.8180999 0.925105772,36.8180999 L15.6934943,36.8180999 C28.0612334,36.8180999 35.1540193,30.0502637 35.1540193,18.2508995 C35.1540193,6.82222656 27.8789875,0 15.6934943,0 Z M15.6934943,0 L0.925105772,0 C0.41352228,0 0,0.374875199 0,0.836774998 L0,35.9813249 C0,36.4432247 0.41352228,36.8180999 0.925105772,36.8180999 L15.6934943,36.8180999 C28.0612334,36.8180999 35.1540193,30.0502637 35.1540193,18.2508995 C35.1540193,6.82222656 27.8789875,0 15.6934943,0 Z" id="Shape"></path>
                    <path d="M15.6934943,0 L0.925105772,0 C0.41352228,0 0,0.374875199 0,0.836774998 L0,35.9813249 C0,36.4432247 0.41352228,36.8180999 0.925105772,36.8180999 L15.6934943,36.8180999 C28.0612334,36.8180999 35.1540193,30.0502637 35.1540193,18.2508995 C35.1540193,6.82222656 27.8789875,0 15.6934943,0 Z M15.6934943,0 L0.925105772,0 C0.41352228,0 0,0.374875199 0,0.836774998 L0,35.9813249 C0,36.4432247 0.41352228,36.8180999 0.925105772,36.8180999 L15.6934943,36.8180999 C28.0612334,36.8180999 35.1540193,30.0502637 35.1540193,18.2508995 C35.1540193,6.82222656 27.8789875,0 15.6934943,0 Z" id="Shape"></path>
                </g>
            </g>
            <rect id="Rectangle" fill="#5AC3A9" x="0" y="12.8859417" width="25.4808659" height="9.00838692"></rect>
            <g id="original-icon" transform="translate(14.506626, 9.655574)" filter="url(#filter-1)">
                <g>
                    <path d="M7.62878196,0 L0.449704195,0 C0.201017775,0 0,0.182231 0,0.406765624 L0,17.4909218 C0,17.7154565 0.201017775,17.8976875 0.449704195,17.8976875 L7.62878196,17.8976875 C13.6408773,17.8976875 17.0887594,14.6077671 17.0887594,8.87196502 C17.0887594,3.31636013 13.5522856,0 7.62878196,0 Z M7.62878196,0 L0.449704195,0 C0.201017775,0 0,0.182231 0,0.406765624 L0,17.4909218 C0,17.7154565 0.201017775,17.8976875 0.449704195,17.8976875 L7.62878196,17.8976875 C13.6408773,17.8976875 17.0887594,14.6077671 17.0887594,8.87196502 C17.0887594,3.31636013 13.5522856,0 7.62878196,0 Z" id="Shape" fill="#000000" fill-rule="nonzero"></path>
                    <path d="M7.62878196,0 L0.449704195,0 C0.201017775,0 0,0.182231 0,0.406765624 L0,17.4909218 C0,17.7154565 0.201017775,17.8976875 0.449704195,17.8976875 L7.62878196,17.8976875 C13.6408773,17.8976875 17.0887594,14.6077671 17.0887594,8.87196502 C17.0887594,3.31636013 13.5522856,0 7.62878196,0 Z M7.62878196,0 L0.449704195,0 C0.201017775,0 0,0.182231 0,0.406765624 L0,17.4909218 C0,17.7154565 0.201017775,17.8976875 0.449704195,17.8976875 L7.62878196,17.8976875 C13.6408773,17.8976875 17.0887594,14.6077671 17.0887594,8.87196502 C17.0887594,3.31636013 13.5522856,0 7.62878196,0 Z" id="Shape" fill="#000000" fill-rule="nonzero"></path>
                </g>
            </g>
        </g>
    </g>
</svg>